<svg width="20" height="20" xmlns="http://www.w3.org/2000/svg" fill="none">
 <defs>
  <clipPath id="clip0_5_21">
   <rect id="svg_1" fill="white" height="20" width="20"/>
  </clipPath>
 </defs>
 <g>
  <title>Layer 1</title>
  <g clip-path="url(#clip0_5_21)" id="eye 1">
   <g id="Group">
    <g id="Group_2">
     <path fill="#8B5D9A" d="m19.8507,9.60918c-0.1785,-0.19914 -4.4725,-4.88262 -9.8507,-4.88262c-5.37819,0 -9.67209,4.68348 -9.85065,4.88262c-0.19914,0.22258 -0.19914,0.55902 0.00001,0.78162c0.17855,0.1992 4.47253,4.8826 9.85064,4.8826c5.3781,0 9.6721,-4.6834 9.8507,-4.8826c0.1991,-0.2226 0.1991,-0.55904 0,-0.78162zm-9.8507,4.49242c-2.26135,0 -4.10155,-1.8402 -4.10155,-4.1016c0,-2.26137 1.8402,-4.10156 4.10155,-4.10156c2.2614,0 4.1016,1.84019 4.1016,4.10156c0,2.2614 -1.8402,4.1016 -4.1016,4.1016z" id="Vector"/>
    </g>
   </g>
   <g id="Group_3">
    <g id="Group_4">
     <path fill="#8B5D9A" d="m10.5859,8.82812c0,-0.58945 0.2927,-1.108 0.7378,-1.42695c-0.3994,-0.20449 -0.845,-0.33086 -1.3237,-0.33086c-1.61535,0 -2.92969,1.31434 -2.92969,2.92969c0,1.6154 1.31434,2.9297 2.92969,2.9297c1.4462,0 2.6433,-1.056 2.8798,-2.4359c-1.18,0.3799 -2.2939,-0.51247 -2.2939,-1.66568z" id="Vector_2"/>
    </g>
   </g>
  </g>
  <ellipse ry="2.46867" rx="2.46867" id="svg_2" cy="9.90564" cx="10.09375" stroke="#8b5d9a" fill="#8b5d9a"/>
  <path transform="rotate(-138 9.81921 9.59608)" fill-opacity="0" fill="#42204e" stroke="#42204e" stroke-width="1.5" opacity="undefined" d="m0.50466,8.34833l18.62909,0l0,2.49549l-18.62909,0l0,-2.49549z" id="svg_3"/>
  <line id="svg_5" y2="16.12319" x2="16.74953" y1="3.74905" x1="3.00048" fill-opacity="0" stroke-width="1.5" stroke="#42204e" fill="none"/>
 </g>
</svg>